<?xml version="1.0" encoding="UTF-8"?>
<!-- Generator: Adobe Illustrator 23.0.2, SVG Export Plug-In . SVG Version: 6.00 Build 0) -->
<svg xmlns="http://www.w3.org/2000/svg" xmlns:xlink="http://www.w3.org/1999/xlink" id="Laag_1" x="0px" y="0px" viewBox="0 0 750 240" style="enable-background:new 0 0 750 240;" xml:space="preserve"> <style type="text/css"> .st0{fill:#FFFFFF;} .st1{enable-background:new ;} </style> <title>Logo_Leviy_Logo_Mono_Wit_Groot</title> <path class="st0" d="M102,0C45.7,0,0,45.7,0,102s45.7,102,102,102s102-45.7,102-102C203.9,45.7,158.3,0.1,102,0z M102,11.1 c50.2,0,90.9,40.6,90.9,90.8c0,9.6-1.5,19.2-4.5,28.3c-3.4,1.8-9,3.7-18,4.7c-15.8,1.7-36.1-2.6-45.8-10.3s-19.3-15.8-22.4-27.4 c-4.4-16.6,3.6-27.3,13.2-28.4c6.2-0.9,11.9,3.4,12.8,9.6c0,0.1,0,0.1,0,0.2c0.5,3.4-0.2,6.8-1.9,9.7c-0.4,0.7-0.1,1.6,0.6,1.9 c0.2,0.1,0.5,0.2,0.7,0.2c7.2-0.3,13.6-5.3,15.9-13.6c2.9-10.2-2-27.6-23.5-32c-14.7-3-33.3,2.9-47.7,26.7 c-21.2,35.1-33,55.7-56.3,60.2C-0.4,84.3,24.7,32.5,72.1,16.1C81.7,12.8,91.8,11.1,102,11.1z M26.5,152.7 c8.6-5.4,16.3-12.6,31.2-31.3c5.6-7.1,12.1-11,19.2-11.3c9-0.3,13.3,2.8,19.5,8.2c7.4,6.4,17.8,20,26.6,30.2 c10.1,11.8,25.4,26.3,38.1,22.1c0,0,0.3-0.1,0.9-0.3c-37.6,33.2-94.9,29.7-128.1-7.9C31.3,159.2,28.8,156,26.5,152.7L26.5,152.7z"/> <path class="st0" d="M297,21.2v161.6h-33V21.2H297z"/> <path class="st0" d="M358.4,154.7c4.8,4.7,11.8,7,20.9,7c6,0.2,11.8-1.5,16.8-4.9c4.7-3.2,7.6-6.7,8.6-10.6h28.4 c-4.5,14.4-11.5,24.4-20.9,30.5s-20.7,9.1-34,9.1c-8.5,0.1-17-1.4-25-4.4c-7.1-2.8-13.6-7.1-18.8-12.6c-5.3-5.6-9.3-12.3-11.9-19.5 c-2.9-8-4.3-16.5-4.2-25c-0.1-8.4,1.4-16.7,4.3-24.5c5.4-14.7,16.7-26.6,31.2-32.7c7.7-3.3,16-4.9,24.4-4.8c10,0,18.7,1.9,26.1,5.8 c7.2,3.7,13.5,9,18.3,15.5c4.8,6.7,8.3,14.2,10.3,22.2c2.1,8.6,2.9,17.4,2.2,26.2h-84.6C350.9,142.4,353.6,150,358.4,154.7z M394.8,93c-3.8-4.2-9.7-6.4-17.6-6.4c-4.4-0.2-8.8,0.7-12.8,2.6c-3.2,1.5-5.9,3.7-8.2,6.5c-2,2.4-3.4,5.2-4.3,8.2 c-0.7,2.4-1.2,4.8-1.5,7.3h52.4C401.4,103.4,398.7,97.2,394.8,93z"/> <path class="st0" d="M482.7,182.9L442.6,66.1h33.8l24.7,79.5h0.5l24.7-79.5h32l-39.7,116.8H482.7z"/> <path class="st0" d="M579,47.9V21.2h33v26.7H579z M612,66.1v116.8h-33V66.1H612z"/> <path class="st0" d="M686.5,217.7c-6.2,4.1-14.8,6.1-25.9,6.1c-3.3,0-6.6-0.1-9.9-0.3s-5.3-0.5-8.6-0.8v-26.6c3,0.3,6.1,0.6,9.3,0.9 c2.7,0.3,5.5,0.4,8.2,0.2c4.2-0.5,7.4-2.1,9.4-5c2-2.8,3.1-6.1,3.1-9.5c0-2.5-0.4-4.9-1.4-7.3L629.8,66.1H664l26.5,79.7h0.5 l25.6-79.7H750l-49,131.2C697.5,206.9,692.7,213.7,686.5,217.7z"/> <g class="st1"> <path class="st0" d="M727.8,173.5c0-5.6,4.3-10.1,9.9-10.1s9.9,4.5,9.9,10.1s-4.3,10.1-9.9,10.1S727.8,179.1,727.8,173.5z M745.8,173.5c0-4.6-3.6-8.4-8.2-8.4s-8.2,3.8-8.2,8.4s3.6,8.4,8.2,8.4S745.8,178.1,745.8,173.5z M734.3,177.7v-8.7 c0-0.4,0.3-0.7,0.7-0.7h3.5c2.1,0,3.2,1.5,3.2,3.4c0,1.4-0.7,2.5-2,3l1.7,2.9c0.3,0.4,0.1,0.8-0.5,0.8h-1.1c-0.4,0-0.6-0.1-0.8-0.5 l-1.6-3.1h-1v2.8c0,0.4-0.3,0.7-0.7,0.7H735C734.5,178.4,734.3,178.2,734.3,177.7z M738.2,173.1c0.8,0,1.2-0.6,1.2-1.3 c0-0.8-0.4-1.5-1.2-1.5h-1.7v2.9H738.2z"/> </g> </svg>